<svg width="719" height="149" viewBox="0 0 719 149" fill="none" xmlns="http://www.w3.org/2000/svg">
<path d="M65 145.4C61.9333 146.467 58.2 147 53.8 147C42.7333 147 34.6 144.133 29.4 138.4C24.3333 132.533 21.8 123.533 21.8 111.4V53H0.2V44.8L38.2 0.599988H45.8V44.8H81.8V53H45.8V113.8C45.8 124.6 51 130 61.4 130C64.2 130 66.8667 129.4 69.4 128.2C72.0667 127 75.3333 124.867 79.2 121.8L85.2 129.4L65 145.4ZM260.811 45L216.211 145H201.011L180.211 94L154.411 145H139.211L108.011 68.8L89.4109 58V51.8L123.611 35L131.211 65.2L155.611 124.6L175.211 82.4L169.611 68.8L151.011 58V51.8L185.211 35L192.811 65.2L216.611 123L240.611 67L212.811 46.8L216.811 38.8H260.811V45ZM341.239 145.4C335.906 146.467 329.506 147 322.039 147C313.239 147 305.306 144.733 298.239 140.2C291.306 135.533 285.839 129.267 281.839 121.4C277.972 113.533 276.039 104.867 276.039 95.4C276.039 85.1333 279.172 75.5333 285.439 66.6C291.706 57.5333 299.506 50.3333 308.839 45C318.306 39.5333 327.439 36.8 336.239 36.8C348.906 36.8 358.706 41.8 365.639 51.8C372.706 61.8 376.239 75 376.239 91.4H302.239C303.039 102.733 306.106 112 311.439 119.2C316.906 126.4 324.306 130 333.639 130C342.306 130 354.639 123.267 370.639 109.8L376.639 117.4L341.239 145.4ZM324.639 53.6C310.239 53.6 302.706 63.4667 302.039 83.2H348.839C347.639 76 346.372 70.5333 345.039 66.8C343.839 62.9333 341.639 59.8 338.439 57.4C335.372 54.8667 330.772 53.6 324.639 53.6ZM469.755 145.4C464.421 146.467 458.021 147 450.555 147C441.755 147 433.821 144.733 426.755 140.2C419.821 135.533 414.355 129.267 410.355 121.4C406.488 113.533 404.555 104.867 404.555 95.4C404.555 85.1333 407.688 75.5333 413.955 66.6C420.221 57.5333 428.021 50.3333 437.355 45C446.821 39.5333 455.955 36.8 464.755 36.8C477.421 36.8 487.221 41.8 494.155 51.8C501.221 61.8 504.755 75 504.755 91.4H430.755C431.555 102.733 434.621 112 439.955 119.2C445.421 126.4 452.821 130 462.155 130C470.821 130 483.155 123.267 499.155 109.8L505.155 117.4L469.755 145.4ZM453.155 53.6C438.755 53.6 431.221 63.4667 430.555 83.2H477.355C476.155 76 474.888 70.5333 473.555 66.8C472.355 62.9333 470.155 59.8 466.955 57.4C463.888 54.8667 459.288 53.6 453.155 53.6ZM587.07 145.4C584.004 146.467 580.27 147 575.87 147C564.804 147 556.67 144.133 551.47 138.4C546.404 132.533 543.87 123.533 543.87 111.4V53H522.27V44.8L560.27 0.599988H567.87V44.8H603.87V53H567.87V113.8C567.87 124.6 573.07 130 583.47 130C586.27 130 588.937 129.4 591.47 128.2C594.137 127 597.404 124.867 601.27 121.8L607.27 129.4L587.07 145.4ZM701.281 121L709.881 104.6L715.881 106.6V148.6L704.881 145H624.281V137.4L691.481 62.8H640.881L632.881 77.2L626.881 75.2V35.2L637.881 38.8H718.481V46.4L651.681 121H701.281Z" fill="white"/>
</svg>
